<?xml version="1.0" encoding="utf-8"?>
<!-- Generator: Adobe Illustrator 19.0.0, SVG Export Plug-In . SVG Version: 6.00 Build 0)  -->
<svg version="1.1" id="Layer_1" xmlns="http://www.w3.org/2000/svg" xmlns:xlink="http://www.w3.org/1999/xlink" x="0px" y="0px"
	 viewBox="-181 183 500 500" style="enable-background:new -181 183 500 500;" xml:space="preserve">
<g id="Page-1">
	<g id="protoio_icon">
		<path id="Fill-1" d="M69,432.9c-15.1,0-27.4-12.3-27.4-27.4c0-15.1,12.3-27.4,27.4-27.4c15.1,0,27.4,12.3,27.4,27.4
			C96.4,420.6,84.1,432.9,69,432.9 M129.8,432.5c0-59-23.1-112.5-60.8-152.1C31.4,320,8.2,373.6,8.2,432.5c0,27,4.9,52.8,13.8,76.7
			C9.1,528-0.4,554.3-4.5,584.6c13.3-15.7,29.6-27.2,47.7-32.9c7.6,11.8,16.2,22.8,25.8,32.9c9.6-10.1,18.3-21.2,25.8-32.9
			c18.1,5.7,34.4,17.2,47.7,32.9c-4.2-30.3-13.7-56.6-26.6-75.4C124.9,485.3,129.8,459.5,129.8,432.5"/>
		<path id="Fill-3" d="M69,641.3c-115.1,0-208.3-93.3-208.3-208.3c0-115.1,93.3-208.3,208.3-208.3c115.1,0,208.3,93.3,208.3,208.3
			C277.3,548.1,184.1,641.3,69,641.3 M69,183c-138.1,0-250,111.9-250,250c0,138.1,111.9,250,250,250c138.1,0,250-111.9,250-250
			C319,294.9,207.1,183,69,183"/>
	</g>
</g>
</svg>
