<?xml version="1.0" encoding="utf-8"?>
<!-- Generator: Adobe Illustrator 19.0.0, SVG Export Plug-In . SVG Version: 6.00 Build 0)  -->
<svg version="1.1" id="Layer_1" xmlns="http://www.w3.org/2000/svg" xmlns:xlink="http://www.w3.org/1999/xlink" x="0px" y="0px"
	 viewBox="-417 420 53.9 58.4" style="enable-background:new -417 420 53.9 58.4;" xml:space="preserve">
<path d="M-381.7,420l-35.3,4.9l4.6,29.3l7.7,24.2l37.4-11.1l4.1-33.1L-381.7,420z M-382.9,424.7l14.2,10.8l-12.5,2.2l-7.7-8.2
	l-22.4,3.1l-0.6-3.9L-382.9,424.7z M-388.4,438l7.8,9.5c0,0-12.7,2.3-12.8,2.7c-0.1,0.4-3.2-5.3-3.2-5.3l-11.2,2.2l-1.5-3.6
	l-0.3-1.9L-388.4,438z M-395.7,454.8l3.2,5.9l-12.2,2.9l-2.1-6.6L-395.7,454.8z"/>
</svg>
