<?xml version="1.0" encoding="utf-8"?>
<!-- Generator: Adobe Illustrator 19.0.0, SVG Export Plug-In . SVG Version: 6.00 Build 0)  -->
<svg version="1.1" id="ps_x5F_cc_x5F_app_x5F_RGB.svg"
	 xmlns="http://www.w3.org/2000/svg" xmlns:xlink="http://www.w3.org/1999/xlink" x="0px" y="0px" viewBox="818 -787 2500 2438"
	 style="enable-background:new 818 -787 2500 2438;" xml:space="preserve">
<g>
	<path d="M2354.5,495.5c0,191.7,89.6,268.8,206.3,268.8c25,0,52.1-3.1,71.9-11.5V237.2h1c-15.6-7.3-35.4-10.4-60.4-10.4
		C2442,226.8,2354.5,327.8,2354.5,495.5z"/>
	<path d="M3159-783.9H977c-87.8,0-159,71.2-159,159V1489c0,87.8,71.2,159,159,159H3159c87.8,0,159-71.2,159-159V-625
		C3318-712.7,3246.8-783.9,3159-783.9z M2097.2,917.4h-181.3c-11.5,0-16.7-3.1-21.9-13.5c-66.7-137.5-134.4-280.2-204.2-428.1h-2.1
		c-62.5,139.6-131.3,291.7-197.9,429.2c-5.2,8.3-10.4,11.5-18.8,11.5h-172.9c-10.4,0-11.5-8.3-6.2-14.6l285.4-549l-276-545.8
		c-6.3-8.3,0-15.6,7.3-15.6h179.2c10.4,0,15.6,2.1,18.8,11.5c65.6,138.5,132.3,275,194.8,414.6h2.1
		c60.4-137.5,127.1-276,190.6-412.5c5.2-8.3,8.3-13.5,18.8-13.5h167.7c8.3,0,11.5,6.3,6.3,15.6l-275,528.1l291.7,565.6
		C2108.6,909.1,2105.5,917.4,2097.2,917.4z M2821.1,866.4c-87.5,41.7-179.2,60.4-266.7,60.4c-226,0-387.5-139.6-387.5-422.9v0
		c0-242.7,156.3-432.3,412.5-432.3c21.9,0,33.3,0,54.2,2.1v-270.8c0-6.2,5.2-10.4,10.4-10.4h167.7c8.3,0,10.4,3.1,10.4,8.3v952.1
		c0,28.1,0,63.5,5.2,102.1C2827.4,862.2,2827.4,863.3,2821.1,866.4z"/>
</g>
</svg>
